<?xml version="1.0" encoding="utf-8"?>
<!-- Generator: Adobe Illustrator 17.1.0, SVG Export Plug-In . SVG Version: 6.00 Build 0)  -->
<!DOCTYPE svg PUBLIC "-//W3C//DTD SVG 1.1//EN" "http://www.w3.org/Graphics/SVG/1.1/DTD/svg11.dtd">
<svg version="1.1" id="Layer_1" xmlns="http://www.w3.org/2000/svg" xmlns:xlink="http://www.w3.org/1999/xlink" x="0px" y="0px"
	 width="24px" height="24px" viewBox="0 0 24 24" style="enable-background:new 0 0 24 24;" xml:space="preserve">
<path d="M23,8.9C23,4,18.7,0,12,0c-0.6,0-1,0.4-1,1s0.4,1,1,1c4.4,0,9.3,1.7,9.3,7.1c0,2.5-0.3,3.2-0.6,4.1
	c-0.1-1.8-1.6-2.9-1.6-2.9s1.5,4.9,0,6.2c-0.2,0.2-0.8,0.5-1.2,0.7c-1.1,0.4-2.5,1.5-2.5,3.1c0,1.3-0.2,1.8-1,1.6
	c-0.1,0.6-1,0.6-1.1,0.1c-0.2,0.5-1,0.5-1.2,0c0,0-0.4,1.5,0,1.8c0.3,0.3,0.9,0.3,1.3,0c0.4,0.3,1,0.2,1.3-0.2c0.3,0.1,0.7,0,1-0.4
	c1-0.6,1.5-1.3,1.5-2.8c0-1.3,2.8-1.6,3.6-2.5c0.4-0.5,0.6-1.3,0.5-2.2C21.7,14.6,23,11.7,23,8.9z"/>
<path d="M1,8.9C1,4,5.3,0,12,0c0.6,0,1,0.4,1,1s-0.4,1-1,1C7.6,2,2.7,3.7,2.7,9.1c0,2.5,0.3,3.2,0.6,4.1c0.1-1.8,1.6-2.9,1.6-2.9
	s-1.5,4.9,0,6.2c0.2,0.2,0.8,0.5,1.2,0.7c1.1,0.4,2.5,1.5,2.5,3.1c0,1.3,0.2,1.8,1,1.6c0.1,0.6,1,0.6,1.1,0.1c0.2,0.5,1,0.5,1.2,0
	c0,0,0.4,1.5,0,1.8c-0.3,0.3-0.9,0.3-1.3,0c-0.4,0.3-1,0.2-1.3-0.2c-0.3,0.1-0.7,0-1-0.4c-1-0.6-1.5-1.3-1.5-2.8
	c0-1.3-2.8-1.6-3.6-2.5c-0.4-0.5-0.6-1.3-0.5-2.2C2.3,14.6,1,11.7,1,8.9z"/>
<path style="fill-rule:evenodd;clip-rule:evenodd;" d="M12,15.8c-0.6,0.2-1.6,1.7-1.6,2.5c0,0.4,0.3,0.6,0.6,0.6
	c0.5,0,0.9-0.5,0.9-0.8c0.1,0.4,0.4,0.8,0.9,0.8c0.3,0,0.6-0.2,0.6-0.6C13.6,17.6,12.6,16,12,15.8z"/>
<path style="fill-rule:evenodd;clip-rule:evenodd;" d="M18,12.7c0-1.5-1.5-3.1-2.7-1.4C14.7,12,13.3,13.6,13,14c0.3,1.3,1,2,2,2
	C17,16,18,14.1,18,12.7z"/>
<path style="fill-rule:evenodd;clip-rule:evenodd;" d="M6,12.7c0-1.5,1.5-3.1,2.7-1.4C9.3,12,10.7,13.6,11,14c-0.3,1.3-1,2-2,2
	C7,16,6,14.1,6,12.7z"/>
</svg>
