<?xml version="1.0" standalone="no"?>
<!DOCTYPE svg PUBLIC "-//W3C//DTD SVG 1.1//EN" "http://www.w3.org/Graphics/SVG/1.1/DTD/svg11.dtd">
<!--Generator: Xara Designer (www.xara.com), SVG filter version: 6.2.0.0-->
<svg stroke-width="0.501" stroke-linejoin="bevel" fill-rule="evenodd" xmlns:xlink="http://www.w3.org/1999/xlink" xmlns="http://www.w3.org/2000/svg" version="1.1" overflow="visible" width="262.001pt" height="262.001pt" viewBox="0 0 262.001 262.001">
 <defs>
  <linearGradient id="LinearGradient" gradientUnits="userSpaceOnUse" x1="0" y1="0" x2="383.25" y2="951.75" gradientTransform="translate(367.851 53.274)">
   <stop offset="0" stop-color="#ffffff"/>
   <stop offset="1" stop-color="#ffffff"/>
  </linearGradient>
 </defs>
 <g id="Document" fill="none" stroke="black" font-family="Times New Roman" font-size="16" transform="scale(1 -1)">
  <g id="Spread" transform="translate(0 -262.001)">
   <g id="Layer 1">
    <path d="M 69.594,241.052 C 62.183,238.927 59.527,237.66 54.591,233.891 C 44.683,226.325 38.825,214.886 36.868,199.286 C 35.514,188.481 35.524,134.257 36.884,122.3 C 38.349,109.412 41.578,99.997 46.416,94.5 C 51.39,88.849 54.943,86.992 60.777,86.992 C 63.302,86.992 66.548,86.542 67.992,85.994 L 70.617,84.996 L 70.617,54.218 L 70.617,23.441 L 73.325,20.93 L 76.033,18.421 L 143.852,18.421 L 211.67,18.421 L 214.32,21.57 L 216.97,24.718 L 216.97,71.719 L 216.97,118.718 L 219.596,118.718 C 221.04,118.718 223.112,119.195 224.201,119.778 C 226.078,120.783 226.181,122.179 226.181,146.789 C 226.181,175.237 226.467,173.984 219.956,173.984 L 216.97,173.984 L 216.97,192.964 C 216.97,211.751 216.944,211.97 214.457,214.456 L 211.945,216.969 L 171.472,216.969 L 131,216.969 L 131,220.491 C 131,222.428 130.6,224.26 130.111,224.562 C 129.623,224.864 128.933,226.922 128.579,229.135 C 128.013,232.674 127.365,233.435 123.198,235.452 C 111.301,241.211 81.141,244.362 69.594,241.052 M 73.483,238.264 C 62.781,236.907 51.817,229.505 46.767,220.227 C 40.635,208.961 39.657,202.165 39.156,167.332 C 38.278,106.252 43.605,90.165 64.732,90.085 L 70.617,90.062 L 70.617,151.291 L 70.617,212.518 L 72.985,214.744 C 75.28,216.899 76.115,216.969 99.595,216.969 L 123.836,216.969 L 123.836,220.346 C 123.836,222.204 124.322,224.21 124.916,224.803 C 126.816,226.704 124.873,231.058 121.385,232.713 C 112.224,237.06 87.023,239.98 73.483,238.264 M 94.607,196.197 C 94.322,195.457 94.22,189.12 94.379,182.116 L 94.668,169.379 L 142.77,169.379 L 190.872,169.379 L 190.872,183.195 L 190.872,197.012 L 142.997,197.278 C 104.185,197.494 95.025,197.289 94.607,196.197 M 114.625,95.179 L 114.625,50.148 L 153.004,50.148 L 191.383,50.148 L 191.383,95.179 L 191.383,140.211 L 153.004,140.211 L 114.625,140.211 L 114.625,95.179 M 127.93,126.043 C 127.93,120.484 128.708,119.742 134.54,119.742 C 138.864,119.742 140.424,121.688 140.022,126.578 L 139.7,130.488 L 133.815,130.795 L 127.93,131.102 L 127.93,126.043 M 148.831,129.626 C 148.519,128.812 148.408,126.37 148.586,124.199 C 148.903,120.336 149.004,120.246 153.336,119.935 C 159.173,119.516 160.862,121.023 160.475,126.306 L 160.168,130.488 L 154.784,130.798 C 150.815,131.026 149.25,130.718 148.831,129.626 M 169.128,129.26 C 168.637,128.247 168.494,125.806 168.808,123.836 C 169.349,120.447 169.619,120.236 173.805,119.935 C 179.641,119.516 181.331,121.023 180.944,126.306 L 180.637,130.488 L 175.328,130.795 C 171.035,131.044 169.847,130.749 169.128,129.26 M 128.131,106.234 L 128.442,100.808 L 134.071,100.808 L 139.7,100.808 L 139.7,105.925 L 139.7,111.043 L 133.759,111.352 L 127.819,111.66 L 128.131,106.234 M 148.831,110.181 C 148.519,109.366 148.408,106.924 148.586,104.754 C 148.887,101.093 149.161,100.785 152.378,100.477 C 154.286,100.294 156.959,100.424 158.318,100.766 C 160.555,101.327 160.76,101.844 160.479,106.214 L 160.168,111.043 L 154.784,111.353 C 150.815,111.581 149.25,111.273 148.831,110.181 M 169.285,110.377 C 168.322,108.82 168.257,104.389 169.161,102.031 C 169.646,100.77 171.024,100.301 174.209,100.312 C 180.368,100.334 181.339,101.23 180.96,106.538 L 180.637,111.043 L 175.355,111.349 C 171.945,111.546 169.795,111.202 169.285,110.377 M 128.659,91.472 C 128.257,91.072 127.93,88.495 127.93,85.746 L 127.93,80.749 L 133.815,81.056 L 139.7,81.363 L 139.7,86.48 L 139.7,91.597 L 134.543,91.899 C 131.706,92.065 129.059,91.873 128.659,91.472 M 148.599,86.789 L 148.911,81.363 L 154.539,81.363 L 160.168,81.363 L 160.168,86.48 L 160.168,91.597 L 154.228,91.906 L 148.288,92.214 L 148.599,86.789 M 168.794,91.392 C 168.302,85.951 168.57,82.544 169.555,81.727 C 170.216,81.18 172.979,80.875 175.696,81.047 L 180.637,81.363 L 180.637,86.48 L 180.637,91.597 L 174.752,91.904 C 171.516,92.073 168.834,91.843 168.794,91.392 M 129.209,71.986 C 128.426,71.67 127.93,69.495 127.93,66.387 L 127.93,61.303 L 133.815,61.61 L 139.7,61.917 L 140.022,66.421 C 140.23,69.332 139.868,71.228 138.998,71.779 C 137.549,72.697 131.301,72.83 129.209,71.986 M 149.612,71.779 C 148.742,71.228 148.38,69.332 148.588,66.421 L 148.911,61.917 L 154.539,61.917 L 160.168,61.917 L 160.491,65.827 C 160.668,67.977 160.266,70.394 159.597,71.2 C 158.281,72.785 151.793,73.162 149.612,71.779 M 170.017,71.739 C 168.806,70.973 168.376,67.841 168.767,62.634 C 168.84,61.67 170.486,61.388 174.752,61.61 L 180.637,61.917 L 180.96,65.827 C 181.137,67.977 180.735,70.394 180.066,71.2 C 178.733,72.807 172.251,73.155 170.017,71.739" stroke="#ffffff" stroke-width="1.023" stroke-linejoin="miter" stroke-miterlimit="79.8403193612775" fill="url(#LinearGradient)"/>
   </g>
  </g>
 </g>
</svg>
