<?xml version="1.0" standalone="no"?>
<!DOCTYPE svg PUBLIC "-//W3C//DTD SVG 1.1//EN" "http://www.w3.org/Graphics/SVG/1.1/DTD/svg11.dtd">
<!--Generator: Xara Designer (www.xara.com), SVG filter version: 6.2.0.0-->
<svg stroke-width="0.501" stroke-linejoin="bevel" fill-rule="evenodd" xmlns:xlink="http://www.w3.org/1999/xlink" xmlns="http://www.w3.org/2000/svg" version="1.1" overflow="visible" width="250.297pt" height="60pt" viewBox="0 0 250.297 60">
 <defs>
	</defs>
 <g id="Document" fill="none" stroke="black" font-family="Times New Roman" font-size="16" transform="scale(1 -1)">
  <g id="Spread" transform="translate(0 -60)">
   <g id="Layer 1">
    <path d="M 90.321,52.24 C 89.653,52.113 89.519,51.858 89.519,50.689 C 89.519,49.739 89.364,49.291 89.03,49.291 C 88.761,49.291 88.34,49.05 88.097,48.756 C 87.602,48.16 85.962,48.023 85.962,48.579 C 85.962,49.078 82.991,49.024 82.483,48.517 C 82.161,48.197 81.082,48.246 77.874,48.724 C 75.024,49.148 72.2,49.31 69.054,49.23 L 64.429,49.112 L 64.429,45.909 L 64.429,42.706 L 70.478,42.723 C 73.806,42.734 77.931,42.879 79.644,43.044 L 82.758,43.346 L 82.758,41.425 L 82.757,39.501 L 79.657,39.46 C 77.706,39.434 76.51,39.268 76.426,39.015 C 76.341,38.758 75.207,38.613 73.297,38.613 L 70.301,38.613 L 70.301,36.713 C 70.301,35.021 70.201,34.767 69.396,34.399 C 68.773,34.116 65.238,33.985 58.147,33.985 L 47.807,33.985 L 46.809,35.054 L 45.812,36.121 L 35.61,36.121 C 29.047,36.121 25.154,35.985 24.695,35.739 C 24.305,35.531 23.795,35.492 23.562,35.654 C 23.329,35.814 21.221,35.946 18.874,35.946 L 14.61,35.944 L 14.381,34.342 C 14.051,32.046 13.584,13.475 13.844,13.055 C 13.983,12.831 15.032,12.951 16.707,13.381 C 18.573,13.858 21.375,14.136 26.203,14.324 L 33.055,14.588 L 33.456,16.381 C 33.679,17.365 33.98,18.368 34.128,18.606 C 34.313,18.904 35.685,19.036 38.6,19.036 L 42.808,19.036 L 44.095,17.468 C 44.802,16.606 46.184,15.31 47.164,14.589 C 48.743,13.43 49.107,13.306 50.349,13.516 C 52.247,13.837 56.804,13.133 59.623,12.08 C 61.142,11.514 62.854,11.186 64.604,11.124 L 67.272,11.028 L 67.65,13.876 C 67.858,15.442 68.393,17.806 68.838,19.13 L 69.648,21.534 L 70.557,20.82 C 71.346,20.199 71.999,20.105 75.536,20.105 L 79.611,20.105 L 81.019,21.529 C 82.124,22.645 82.697,22.952 83.662,22.952 L 84.893,22.952 L 84.893,20.817 C 84.893,18.306 84.246,18.474 91.656,19.057 C 98.574,19.601 98.062,19.375 98.062,21.89 L 98.062,24.021 L 99.634,24.021 C 100.628,24.021 102.949,24.658 105.952,25.757 L 110.701,27.493 L 122.979,27.748 L 135.257,28.002 L 135.969,26.65 C 136.361,25.905 137.209,24.992 137.854,24.616 C 138.971,23.968 139.1,23.964 140.579,24.529 C 141.933,25.046 143.43,25.102 152.309,24.972 C 158.454,24.882 162.486,24.954 162.486,25.153 C 162.486,25.516 175.746,25.309 178.611,24.9 C 179.972,24.707 180.46,24.783 181.002,25.273 C 181.608,25.821 181.627,25.969 181.173,26.618 C 180.794,27.159 180.187,27.377 178.818,27.462 C 177.803,27.526 176.772,27.412 176.526,27.208 C 176.042,26.806 163.646,26.959 160.584,27.405 C 159.474,27.567 158.721,27.516 158.466,27.262 C 157.936,26.731 155.618,26.76 155.073,27.303 C 154.729,27.648 154.489,27.648 153.939,27.303 C 153.467,27.008 151.714,26.884 148.521,26.922 C 145.924,26.951 144.239,27.041 144.779,27.122 C 145.316,27.204 145.756,27.421 145.756,27.603 C 145.756,27.785 145.997,27.935 146.289,27.935 C 146.724,27.935 146.825,28.51 146.825,30.961 L 146.825,33.985 L 184.211,33.985 C 221.108,33.985 221.611,33.976 222.363,33.273 C 223.398,32.31 225.791,32.31 226.826,33.273 C 227.502,33.903 228.083,33.985 231.838,33.985 C 236.397,33.985 236.517,34.036 236.517,35.944 C 236.517,37.858 236.412,37.901 231.676,37.901 C 228.972,37.901 227.264,38.038 227.264,38.257 C 227.264,38.462 226.137,38.613 224.594,38.613 C 223.052,38.613 221.926,38.462 221.926,38.257 C 221.926,37.86 113.159,37.741 108.118,38.133 C 106.001,38.299 105.182,38.497 105.182,38.844 C 105.182,39.153 104.707,39.342 103.848,39.375 C 102.572,39.424 101.728,39.486 100.554,39.619 C 100.16,39.665 100.021,40.141 100.021,41.46 L 100.021,43.239 L 101.73,43.239 C 102.669,43.239 105.664,42.679 108.384,41.994 C 112.206,41.032 114.056,40.748 116.517,40.748 C 119.091,40.748 119.739,40.855 119.915,41.311 C 120.193,42.039 120.187,49.22 119.907,50.268 C 119.706,51.014 119.495,51.07 116.87,51.07 C 114.759,51.07 112.621,50.712 108.384,49.645 C 102.678,48.212 100.425,47.924 100.021,48.579 C 99.899,48.774 99.178,48.934 98.42,48.934 C 97.659,48.934 96.937,48.774 96.817,48.579 C 96.458,47.999 94.742,48.195 93.881,48.914 C 93.324,49.38 93.08,49.97 93.08,50.86 C 93.08,51.726 92.918,52.138 92.575,52.138 C 92.298,52.138 91.858,52.195 91.597,52.265 C 91.336,52.336 90.762,52.325 90.321,52.24 M 85.962,41.499 C 85.962,40.421 86.131,39.699 86.406,39.608 C 86.785,39.481 95.435,39.504 96.461,39.636 C 96.656,39.66 96.817,40.482 96.817,41.46 C 96.817,43.224 96.808,43.239 95.682,43.239 C 95.056,43.239 94.447,43.08 94.325,42.884 C 94.205,42.688 92.843,42.528 91.3,42.528 C 89.757,42.528 88.396,42.688 88.275,42.884 C 88.153,43.08 87.584,43.239 87.008,43.239 C 85.992,43.239 85.962,43.189 85.962,41.499 M 229.044,36.299 C 229.044,35.811 229.205,35.409 229.4,35.409 C 229.594,35.409 229.756,35.811 229.756,36.299 C 229.756,36.789 229.594,37.189 229.4,37.189 C 229.205,37.189 229.044,36.789 229.044,36.299 M 56.394,27.361 C 54.059,26.645 52.8,25.194 52.587,22.975 C 52.429,21.329 52.504,21.103 53.521,20.152 C 56.874,17.022 62.919,19.735 63.241,24.517 C 63.419,27.135 60.121,28.506 56.394,27.361 M 71.101,27.134 C 70.906,26.889 70.638,25.937 70.505,25.017 C 70.218,23.033 70.905,21.38 72.155,21.044 C 73.299,20.738 78.939,20.773 79.412,21.088 C 80.655,21.918 81.001,24.746 80.079,26.53 C 79.557,27.541 79.443,27.579 77.054,27.579 L 74.571,27.579 L 74.571,25.616 C 74.571,23.784 74.649,23.607 75.728,22.949 C 76.869,22.252 76.873,22.244 75.969,22.242 C 74.481,22.24 73.473,23.631 73.425,25.754 C 73.385,27.491 73.336,27.579 72.42,27.579 C 71.889,27.579 71.296,27.379 71.101,27.134" fill="#ffffff" stroke="#ffffff" stroke-width="0.356" stroke-linejoin="miter" stroke-miterlimit="79.8403193612775"/>
   </g>
  </g>
 </g>
</svg>
