<?xml version="1.0" standalone="no"?>
<!DOCTYPE svg PUBLIC "-//W3C//DTD SVG 1.1//EN" "http://www.w3.org/Graphics/SVG/1.1/DTD/svg11.dtd">
<!--Generator: Xara Designer (www.xara.com), SVG filter version: 6.2.0.0-->
<svg stroke-width="0.501" stroke-linejoin="bevel" fill-rule="evenodd" xmlns:xlink="http://www.w3.org/1999/xlink" xmlns="http://www.w3.org/2000/svg" version="1.1" overflow="visible" width="185.48pt" height="219.091pt" viewBox="0 0 185.48 219.091">
 <defs>
	</defs>
 <g id="Document" fill="none" stroke="black" font-family="Times New Roman" font-size="16" transform="scale(1 -1)">
  <g id="Spread" transform="translate(0 -219.091)">
   <g id="Layer 1">
    <g id="Group" fill-rule="evenodd" stroke-linejoin="miter" stroke="none" stroke-width="6.516" stroke-miterlimit="79.8403193612775">
     <path d="M 73.132,88.96 L 5.206,52.385 L 53.1,116.825 L -0.018,133.371 L 54.842,142.514 L 17.833,214.793 L 83.146,166.028 L 99.691,219.147 L 108.835,164.721 L 179.804,200.424 L 132.781,135.984 L 185.464,118.133 L 129.298,109.86 L 166.307,38.455 L 90.548,95.928 Z" fill="#e5e5e5" marker-start="none" marker-end="none" fill-opacity="0.400000"/>
     <path d="M 75.869,0.663 C 64.009,3.617 61.643,9.468 68.538,18.795 C 72.305,23.89 72.413,25.197 72.374,65.184 C 72.335,105.315 72.239,106.431 68.498,110.413 C 61.231,118.148 65.375,130.652 75.206,130.652 C 78.65,130.652 80.18,134.086 80.18,141.816 C 80.18,145.3 79.172,147.911 77.593,148.517 C 73.516,150.081 74.574,154.71 79.43,156.557 C 81.862,157.482 88.069,158.238 93.223,158.238 C 102.485,158.238 102.593,158.297 102.593,163.41 C 102.593,166.859 103.455,168.583 105.18,168.583 C 106.602,168.583 107.766,167.225 107.767,165.566 C 107.769,161.547 115.896,144.616 124.745,130.191 L 131.904,118.523 L 131.904,82.407 C 131.904,48.466 131.703,46.185 128.569,44.507 C 126.735,43.526 124.213,42.784 122.965,42.859 C 121.718,42.934 122.83,43.774 125.438,44.726 L 130.179,46.458 L 130.179,116.105 L 119.835,126.341 C 113.043,133.062 109.49,135.581 109.49,133.675 C 109.49,132.079 111.042,129.942 112.938,128.927 C 117.198,126.648 117.625,116.903 113.726,110.953 C 110.639,106.241 109.083,84.983 109.186,48.908 C 109.244,27.425 109.626,24.42 112.82,20.099 C 117.016,14.424 117.475,6.116 113.763,3.036 C 111.087,0.815 82.458,-0.977 75.87,0.662 Z" fill="#ffffff" marker-start="none" marker-end="none"/>
    </g>
   </g>
  </g>
 </g>
</svg>
