<?xml version="1.0" standalone="no"?>
<!DOCTYPE svg PUBLIC "-//W3C//DTD SVG 1.1//EN" "http://www.w3.org/Graphics/SVG/1.1/DTD/svg11.dtd">
<!--Generator: Xara Designer (www.xara.com), SVG filter version: 6.2.0.0-->
<svg stroke-width="0.501" stroke-linejoin="bevel" fill-rule="evenodd" xmlns:xlink="http://www.w3.org/1999/xlink" xmlns="http://www.w3.org/2000/svg" version="1.1" overflow="visible" width="203.994pt" height="268.039pt" viewBox="0 0 203.994 268.039">
 <defs>
	</defs>
 <g id="Document" fill="none" stroke="black" font-family="Times New Roman" font-size="16" transform="scale(1 -1)">
  <g id="Spread" transform="translate(0 -268.039)">
   <g id="Layer 1">
    <path d="M 122.244,243.344 C 122.244,241.881 109.154,240.108 93.154,239.41 C 68.931,238.351 63.357,237.171 59.842,232.365 C 54.38,224.892 55.898,220.884 65.002,218.743 C 71.877,217.128 72.476,215.313 74.517,189.925 C 75.718,175.027 76.165,161.304 75.515,159.432 C 74.865,157.563 68.199,155.113 60.704,153.988 C 32.11,149.702 16.386,130.312 16.386,99.347 C 16.386,63.9 28.308,42.287 55.094,29.184 C 69.149,22.307 75.83,20.985 96.536,20.985 C 138.035,20.985 162.192,36.709 173.921,71.355 L 178.83,85.858 L 180.914,58.274 C 182.371,38.942 181.942,29.42 179.471,26.441 C 177.396,23.946 177.19,22.195 178.969,22.195 C 187.873,22.195 189.025,30.954 186.382,78.614 L 183.723,126.541 L 160.676,177.957 C 129.46,247.6 130.295,245.958 126.025,245.985 C 123.947,245.997 122.244,244.811 122.244,243.344 M 116.748,167.003 C 117.659,157.726 118.627,157.022 135.739,153.15 C 155.19,148.753 166.042,140.88 172.415,126.541 C 174.635,121.55 176.498,119.509 176.555,122.004 C 176.613,124.499 170.201,137.429 162.307,150.737 L 147.952,174.933 L 131.871,175.855 L 115.787,176.775 L 116.748,167.003" fill="#ffffff" stroke="#ffffff" stroke-width="3.025" stroke-linejoin="miter" stroke-miterlimit="79.8403193612775"/>
   </g>
  </g>
 </g>
</svg>
