<?xml version="1.0" standalone="no"?>
<!DOCTYPE svg PUBLIC "-//W3C//DTD SVG 1.1//EN" "http://www.w3.org/Graphics/SVG/1.1/DTD/svg11.dtd">
<!--Generator: Xara Designer (www.xara.com), SVG filter version: 6.2.0.0-->
<svg stroke-width="0.501" stroke-linejoin="bevel" fill-rule="evenodd" xmlns:xlink="http://www.w3.org/1999/xlink" xmlns="http://www.w3.org/2000/svg" version="1.1" overflow="visible" width="126.352pt" height="289.09pt" viewBox="0 0 126.352 289.09">
 <defs>
	</defs>
 <g id="Document" fill="none" stroke="black" font-family="Times New Roman" font-size="16" transform="scale(1 -1)">
  <g id="Spread" transform="translate(0 -289.09)">
   <g id="Layer 1">
    <path d="M 34.464,247.633 C 33.666,246.342 35.337,242.813 38.175,239.791 C 42.237,235.466 43.338,231.161 43.338,219.613 C 43.338,211.462 42.028,203.62 40.395,201.986 C 38.776,200.367 32.644,199.043 26.769,199.043 L 16.086,199.043 L 17.583,175.74 L 29.847,172.527 C 43.574,168.931 84.435,169.956 95.299,174.168 C 100.288,176.103 102.071,178.676 102.674,184.816 C 103.111,189.268 104.308,166.068 105.333,133.26 C 106.359,100.452 106.562,72.582 105.785,71.324 C 105.007,70.066 105.576,69.038 107.046,69.038 C 108.517,69.038 110.261,70.448 110.924,72.173 C 111.586,73.895 111.176,103.975 110.016,139.015 C 108.809,175.428 108.826,203.929 110.055,205.538 C 117.051,214.7 112.628,231.618 102.01,236.317 C 98.07,238.061 94.85,240.321 94.85,241.341 C 94.85,242.361 93.312,243.195 91.433,243.195 C 89.554,243.195 87.363,244.895 86.566,246.973 C 85.379,250.066 80.65,250.682 60.514,250.365 C 46.983,250.154 35.261,248.923 34.464,247.633 M 94.85,230.004 C 94.85,228.144 96.621,222.385 98.784,217.207 C 102.495,208.325 102.915,208.055 106.143,212.47 C 110.524,218.458 110.453,221.217 105.748,227.931 C 101.507,233.987 94.85,235.253 94.85,230.004 M 75.668,208.241 C 76.497,202.42 86.22,199.543 94.428,202.69 C 97.926,204.034 97.639,204.913 92.38,208.953 C 89.017,211.535 83.704,213.677 80.574,213.706 C 76.065,213.748 75.047,212.615 75.668,208.241 M 86.264,158.165 C 72.05,154.839 39.546,155.197 23.102,158.864 L 16.356,160.367 L 16.356,81.18 L 23.102,78.273 C 31.837,74.505 86.441,74.564 95.463,78.349 L 102.208,81.18 L 102.208,121.714 C 102.208,144.009 101.934,162.104 101.595,161.93 C 101.257,161.753 94.359,160.061 86.264,158.165 M 86.264,62.206 C 72.114,59.177 38.768,59.712 22.989,63.222 L 16.128,64.748 L 16.857,46.655 L 17.583,28.565 L 58.723,27.892 C 91.808,27.35 100.116,27.878 101.156,30.588 C 101.867,32.44 102.12,41.023 101.715,49.657 L 100.982,65.358 L 86.264,62.206" fill="#ffffff" stroke="#ffffff" stroke-width="2.453" stroke-linejoin="miter" stroke-miterlimit="79.8403193612775"/>
   </g>
  </g>
 </g>
</svg>
