<?xml version="1.0" standalone="no"?>
<!DOCTYPE svg PUBLIC "-//W3C//DTD SVG 1.1//EN" "http://www.w3.org/Graphics/SVG/1.1/DTD/svg11.dtd">
<!--Generator: Xara Designer (www.xara.com), SVG filter version: 6.2.0.0-->
<svg stroke-width="0.501" stroke-linejoin="bevel" fill-rule="evenodd" xmlns:xlink="http://www.w3.org/1999/xlink" xmlns="http://www.w3.org/2000/svg" version="1.1" overflow="visible" width="242.788pt" height="80.566pt" viewBox="0 0 242.788 80.566">
 <defs>
	</defs>
 <g id="Document" fill="none" stroke="black" font-family="Times New Roman" font-size="16" transform="scale(1 -1)">
  <g id="Spread" transform="translate(0 -80.566)">
   <g id="Layer 1">
    <path d="M 105.789,66.313 L 105.675,64.106 L 98.625,64.142 C 94.747,64.161 88.04,64.315 83.719,64.484 L 75.863,64.793 L 75.64,62.354 C 75.517,61.012 75.537,59.143 75.684,58.2 L 75.952,56.485 L 81.477,56.488 C 84.516,56.489 89.532,56.642 92.623,56.829 L 98.244,57.168 L 98.244,55.588 C 98.244,54.095 97.811,53.549 97.292,54.389 C 97.027,54.818 94.814,53.822 94.814,53.271 C 94.814,53.087 93.044,52.877 90.879,52.805 C 87.394,52.69 86.687,52.544 84.698,51.525 C 82.69,50.497 82.031,49.842 80.525,47.381 C 80.315,47.039 79.029,46.438 77.667,46.046 C 76.305,45.656 72.328,44.458 68.83,43.385 C 62.888,41.562 62.204,41.434 58.445,41.434 C 55.123,41.434 54.422,41.533 54.422,42.005 C 54.422,42.405 54.02,42.577 53.088,42.577 C 52.157,42.577 51.755,42.405 51.755,42.005 C 51.755,41.517 50.696,41.434 44.515,41.434 L 37.274,41.434 L 37.274,43.148 L 37.274,44.863 L 45.993,44.863 L 54.713,44.863 L 55.71,46.171 C 56.857,47.674 57,49.399 56.093,50.783 L 55.478,51.723 L 42.416,51.723 C 27.727,51.723 28.891,51.987 28.891,48.643 C 28.891,47.231 29.032,46.769 29.463,46.769 C 29.784,46.769 30.034,46.429 30.034,45.995 C 30.034,45.569 30.292,45.121 30.606,45.002 C 30.994,44.852 31.178,44.243 31.178,43.107 L 31.178,41.434 L 29.463,41.434 L 27.748,41.434 L 27.748,43.139 C 27.748,45.547 26.748,46.006 21.52,46.006 C 18.334,46.006 17.497,46.12 17.321,46.578 C 17.025,47.35 14.925,47.32 14.487,46.537 C 14.171,45.973 14.125,45.973 13.907,46.537 C 13.641,47.233 12.105,47.359 11.482,46.735 C 11.184,46.437 10.996,46.437 10.811,46.735 C 10.67,46.963 9.751,47.149 8.768,47.148 C 4.736,47.144 3.757,44.677 3.748,34.498 C 3.74,27.069 4.158,24.573 5.659,23.072 C 6.672,22.059 6.871,22.015 10.373,22.034 C 12.825,22.046 14.03,22.195 14.03,22.484 C 14.03,22.789 14.164,22.78 14.487,22.457 C 15.205,21.739 16.925,21.911 17.508,22.759 C 17.878,23.297 18.282,23.451 18.889,23.286 C 19.71,23.064 19.746,22.883 19.746,18.951 C 19.746,15.169 19.687,14.833 18.983,14.649 C 18.399,14.497 18.222,14.129 18.222,13.08 L 18.222,11.711 L 20.889,11.711 L 23.556,11.711 L 23.556,13.235 C 23.556,14.505 23.43,14.759 22.795,14.759 C 22.079,14.759 22.032,15.013 22.032,18.902 L 22.032,23.045 L 23.895,23.292 C 24.92,23.428 26.338,23.932 27.046,24.412 C 29.131,25.829 46.765,32 48.124,31.79 C 48.819,31.683 49.528,31.831 49.906,32.164 C 50.25,32.468 51.493,32.815 52.668,32.937 C 54.671,33.143 54.803,33.219 54.803,34.171 C 54.803,35.884 55.377,36.099 59.972,36.099 L 64.226,36.099 L 64.472,34.3 L 64.719,32.5 L 60.962,28.679 C 56.527,24.168 54.998,21.775 55.351,19.895 C 55.556,18.804 55.981,18.397 58.31,17.054 C 61.469,15.232 64.614,14.375 65.133,15.194 C 65.314,15.479 65.464,15.982 65.467,16.311 C 65.479,17.583 66.697,20.419 67.592,21.26 C 68.108,21.744 68.696,22.755 68.898,23.507 C 69.14,24.404 69.671,25.112 70.445,25.57 C 71.242,26.041 71.939,26.993 72.595,28.507 L 73.568,30.747 L 74.525,29.993 C 75.431,29.281 76.115,29.239 87.149,29.227 C 96.284,29.218 98.961,29.105 99.487,28.706 C 100.021,28.3 102.125,28.232 109.776,28.371 C 118.462,28.529 119.493,28.616 120.425,29.274 C 120.993,29.674 121.679,30.02 121.95,30.042 C 122.22,30.064 124.328,32.109 126.633,34.586 L 130.824,39.088 L 156.261,39.118 L 181.696,39.147 L 181.74,40.576 C 181.764,41.362 181.863,41.706 181.958,41.338 C 182.055,40.972 182.452,40.671 182.841,40.671 C 183.72,40.671 184.273,39.181 183.558,38.739 C 183.232,38.539 183.047,37.634 183.04,36.215 L 183.029,34.003 L 187.368,33.662 C 191.526,33.335 191.733,33.354 192.322,34.116 C 192.906,34.872 193.305,34.914 200.053,34.945 C 204.542,34.964 207.259,34.831 207.411,34.584 C 207.728,34.072 211.302,34.077 211.619,34.59 C 211.753,34.808 212.214,34.875 212.644,34.739 C 215.075,33.967 217.135,34.608 217.135,36.136 C 217.135,37.07 215.62,38.106 215.003,37.594 C 214.683,37.327 214.453,37.337 214.276,37.623 C 214.093,37.92 213.853,37.904 213.447,37.568 C 212.746,36.985 201.366,36.638 196.048,37.037 C 192.94,37.27 192.411,37.409 192.246,38.037 C 192.088,38.644 191.705,38.767 189.96,38.767 L 187.866,38.767 L 188.056,40.957 C 188.16,42.162 188.063,43.62 187.838,44.196 C 187.453,45.186 187.297,45.244 185.02,45.244 C 183.604,45.244 182.412,45.048 182.127,44.767 C 181.739,44.384 181.669,44.588 181.765,45.811 L 181.887,47.332 L 201.951,47.472 L 222.017,47.613 L 222.448,46.81 C 222.872,46.017 224.191,45.7 224.438,46.331 C 224.617,46.789 230.416,47.168 230.681,46.738 C 230.8,46.545 232.768,46.388 235.053,46.388 C 239.718,46.388 239.998,46.549 239.998,49.246 C 239.998,51.936 239.712,52.104 235.107,52.104 C 232.535,52.104 230.842,51.941 230.569,51.667 C 230.252,51.351 229.841,51.341 229.064,51.637 C 228.476,51.859 226.829,52.135 225.405,52.25 C 223.344,52.416 222.773,52.345 222.602,51.9 C 222.417,51.417 219.065,51.345 197.755,51.367 C 163.733,51.401 132.011,51.935 129.967,52.506 C 129.077,52.755 128.347,53.104 128.347,53.283 C 128.347,53.825 126.132,54.813 125.87,54.389 C 125.741,54.18 124.359,54.008 122.8,54.008 L 119.964,54.008 L 119.964,55.723 C 119.964,56.666 120.081,57.438 120.223,57.438 C 120.366,57.438 122.295,57.005 124.511,56.476 C 128.17,55.601 129.165,55.523 135.397,55.618 L 142.257,55.723 L 142.257,60.487 L 142.257,65.25 L 135.778,65.491 C 129.946,65.708 128.92,65.648 125.489,64.888 C 122.602,64.248 120.526,64.051 116.916,64.075 L 112.153,64.106 L 112.117,66.202 L 112.082,68.298 L 108.993,68.409 L 105.904,68.518 L 105.789,66.313 M 102.308,57.184 C 102.169,57.044 102.054,56.702 102.054,56.421 C 102.054,56.017 103.483,55.914 109.104,55.914 C 116.008,55.914 116.154,55.93 116.154,56.713 C 116.154,57.454 116.008,57.493 114.153,57.267 C 109.707,56.723 106.148,56.622 105.743,57.026 C 105.295,57.476 102.718,57.593 102.308,57.184 M 75.212,35.251 C 74.392,34.083 74.449,31.798 75.315,31.013 C 75.699,30.667 76.56,30.382 77.229,30.382 C 78.404,30.382 78.427,30.413 77.884,31.24 C 77.257,32.198 77.037,34.41 77.467,35.432 C 77.904,36.47 75.955,36.315 75.212,35.251 M 80.144,35.825 C 78.213,35.354 77.521,33.481 78.49,31.354 C 78.926,30.397 78.996,30.382 83.203,30.382 L 87.474,30.382 L 88.124,32.701 C 88.482,33.975 88.681,35.262 88.567,35.559 C 88.406,35.978 87.527,36.089 84.633,36.054 C 82.583,36.03 80.563,35.927 80.144,35.825 M 27.748,29.621 C 27.748,27.944 27.883,26.572 28.047,26.572 C 28.421,26.572 44.265,32.3 44.483,32.514 C 44.571,32.599 42.984,32.669 40.958,32.669 L 37.274,32.669 L 37.274,31.526 L 37.274,30.382 L 34.607,30.382 C 33.14,30.382 31.811,30.339 31.654,30.288 C 31.497,30.235 31.314,30.75 31.248,31.43 C 31.134,32.624 31.068,32.669 29.439,32.669 L 27.748,32.669 L 27.748,29.621" fill="#ffffff" stroke="#ffffff" stroke-width="0.381" stroke-linejoin="miter" stroke-miterlimit="79.8403193612775"/>
   </g>
  </g>
 </g>
</svg>
